<?xml version="1.0" encoding="UTF-8"?>
<svg version="1.1" xmlns="http://www.w3.org/2000/svg" width="1157" height="1156">
<path d="M0 0 C3.59546584 1.80611179 7.04474749 3.84417697 10.51074219 5.88476562 C12.4444164 6.9897707 14.37940551 8.09247674 16.31542969 9.19335938 C21.31515667 12.04913302 26.29507232 14.93751874 31.269104 17.83776855 C37.6196881 21.53707322 44.00179873 25.18090888 50.38574219 28.82226562 C51.55781414 29.49139519 52.7298518 30.16058483 53.90185547 30.82983398 C57.43778804 32.84878083 60.97421811 34.86685512 64.51074219 36.88476562 C69.21949128 39.57153774 73.92797137 42.25877967 78.63574219 44.94726562 C79.50655426 45.44454666 79.50655426 45.44454666 80.3949585 45.95187378 C89.85451931 51.35505891 99.29374764 56.79295508 108.7265625 62.24267578 C120.12220119 68.82264919 131.54963576 75.34667934 142.97851562 81.86865234 C146.49254898 83.87412377 150.00569188 85.88115093 153.51855469 87.88867188 C154.09574249 88.21851578 154.6729303 88.54835968 155.26760864 88.88819885 C158.17898304 90.55201921 161.09025507 92.21601857 164.00146484 93.88012695 C169.28728046 96.90137816 174.57372339 99.92150367 179.86335754 102.93606567 C182.82957613 104.62655637 185.79529339 106.31792498 188.76074219 108.00976562 C189.34369049 108.34232361 189.92663879 108.67488159 190.5272522 109.01751709 C198.61320188 113.6326461 206.6664699 118.30098375 214.69824219 123.00976562 C223.78641418 128.33705504 232.95130378 133.512401 242.15600586 138.63525391 C250.32608405 143.1931971 258.40876561 147.88869342 266.47583008 152.62597656 C274.80237081 157.50264795 283.21279044 162.21937995 291.64306641 166.91381836 C298.19629528 170.56955372 304.69053479 174.30643587 311.14160156 178.13891602 C316.86597518 181.53004482 322.65027543 184.80882743 328.44824219 188.07226562 C340.19749694 194.68836997 351.88662994 201.40549391 363.55078125 208.17041016 C366.27128331 209.7460754 368.9959419 211.31427633 371.72167969 212.88085938 C373.23493149 213.75676254 374.74797022 214.63303399 376.26074219 215.50976562 C376.92122559 215.88705811 377.58170898 216.26435059 378.26220703 216.65307617 C384.23708748 220.13672197 389.26584383 223.73988939 392.76074219 229.88476562 C393.24027344 230.70976562 393.71980469 231.53476562 394.21386719 232.38476562 C396.92285978 237.60692002 397.80193643 241.77927132 397.77080441 247.65606213 C397.77461008 248.43548728 397.77841575 249.21491243 397.78233674 250.01795653 C397.7926736 252.63941327 397.78874249 255.26065432 397.78489685 257.88212585 C397.78934812 259.77672453 397.7946618 261.67132134 397.80076557 263.56591541 C397.8149694 268.78005077 397.81660841 273.99412659 397.81616867 279.20827854 C397.81781478 284.82876058 397.83087746 290.44921794 397.84236145 296.06968689 C397.8652267 308.36305827 397.87313372 320.6564124 397.87818789 332.94980216 C397.88144317 340.62436731 397.88796462 348.29892745 397.89518929 355.97348976 C397.91475727 377.21797805 397.93124158 398.46246059 397.93406582 419.70695782 C397.93415988 420.38649127 397.93425394 421.06602473 397.93435085 421.7661501 C397.93472933 424.51999948 397.93509333 427.27384885 397.93545383 430.02769822 C397.93572555 432.10041535 397.93600223 434.17313248 397.9362793 436.24584961 C397.93636732 436.93075523 397.93645534 437.61566084 397.93654603 438.32132118 C397.93945104 459.83819659 397.96154279 481.35498215 397.99780273 502.87182617 C398.03853847 527.04525498 398.06220487 551.21860239 398.06252533 575.39207298 C398.06311027 588.19148606 398.0716258 600.9907835 398.10052299 613.79016685 C398.12501511 624.68863109 398.13233436 635.5869375 398.11727547 646.4854218 C398.11009775 652.0461676 398.11100149 657.60660162 398.13368607 663.16731262 C398.15426061 668.25956939 398.1516896 673.35127436 398.13081122 678.44352505 C398.12731344 680.2840569 398.13223849 682.12462844 398.14651566 683.96510824 C398.22274841 694.47082932 398.16527419 703.69213741 390.6923427 711.87620753 C385.42341492 716.98819839 378.87475493 720.39693632 372.51074219 723.94726562 C370.76895277 724.93513152 369.02717277 725.92301476 367.28613281 726.91220093 C365.51076877 727.91990679 363.7334304 728.92407029 361.95605469 729.92822266 C356.78038241 732.86741183 351.64542077 735.87472254 346.51074219 738.88476562 C338.25919115 743.71034935 329.98486919 748.4947064 321.69824219 753.25976562 C312.76199901 758.40131224 303.87163093 763.61447199 295.01074219 768.88476562 C285.07563231 774.79398623 275.094233 780.61555566 265.07373047 786.37866211 C257.83045809 790.54455873 250.60142065 794.73375225 243.38574219 798.94726562 C241.90980591 799.80904419 241.90980591 799.80904419 240.40405273 800.68823242 C237.4393238 802.41991084 234.47496092 804.15221402 231.51074219 805.88476562 C227.55288745 808.198086 223.59463556 810.51072312 219.63574219 812.82226562 C218.64856201 813.39871826 217.66138184 813.9751709 216.64428711 814.5690918 C209.34462861 818.82678222 202.02373003 823.04671542 194.69824219 827.25976562 C185.65646592 832.46138168 176.66258146 837.73878527 167.69824219 843.07226562 C158.00881546 848.83577408 148.26974336 854.49779112 138.46386719 860.06054688 C135.06354934 861.99156665 131.68035315 863.94893629 128.30761719 865.92773438 C127.45941406 866.42426514 126.61121094 866.9207959 125.73730469 867.43237305 C124.15169631 868.36226108 122.56815646 869.2956909 120.98730469 870.23364258 C109.42681886 877.0018616 99.98578822 879.86384078 86.51074219 877.88476562 C82.15304507 876.53757578 78.47753939 874.5691197 74.60546875 872.17333984 C72.1589253 870.66834494 69.67792127 869.23121955 67.19042969 867.79492188 C63.10163566 865.42983513 59.02553479 863.04463846 54.95605469 860.64648438 C48.54526865 856.88456561 42.06854653 853.24827373 35.57324219 849.63476562 C28.07022302 845.45606432 20.61145241 841.2239011 13.22705078 836.83935547 C6.5911999 832.90880525 -0.102794 829.08148446 -6.80175781 825.25976562 C-7.69684555 824.74908539 -7.69684555 824.74908539 -8.61001587 824.22808838 C-11.67698746 822.47857484 -14.74440422 820.72984356 -17.81201172 818.98144531 C-23.12789984 815.95116619 -28.43999131 812.91424556 -33.7522583 809.87762451 C-36.65531105 808.21825633 -39.55862604 806.55934712 -42.46191406 804.90039062 C-43.62744266 804.23437719 -44.79297 803.56836156 -45.95849609 802.90234375 C-46.53867493 802.57081299 -47.11885376 802.23928223 -47.71661377 801.89770508 C-53.10205069 798.82031255 -53.10205069 798.82031255 -54.91888428 797.78211975 C-56.12709303 797.0917162 -57.33530429 796.40131701 -58.54351807 795.71092224 C-61.52142107 794.0092886 -64.499282 792.3075814 -67.47705078 790.60571289 C-72.65077203 787.64893666 -77.82482503 784.69275443 -83.00097656 781.74023438 C-92.36590438 776.3969353 -101.71536849 771.02779195 -111.05175781 765.63476562 C-123.66406961 758.35010049 -136.3069922 751.11971464 -148.95703125 743.90087891 C-155.38528827 740.23224959 -161.81073426 736.55869789 -168.23669434 732.88604736 C-169.98492711 731.88689149 -171.7331787 730.88776854 -173.48144531 729.88867188 C-174.05854248 729.55887329 -174.63563965 729.22907471 -175.23022461 728.88928223 C-178.74974284 726.87816402 -182.26991607 724.86819747 -185.79058838 722.85910034 C-198.78029137 715.446369 -211.75497825 708.00865474 -224.70507812 700.52685547 C-232.57982686 695.97988459 -240.46810076 691.45692399 -248.36425781 686.94726562 C-248.94031769 686.61815186 -249.51637756 686.28903809 -250.1098938 685.94995117 C-256.11405455 682.51978227 -262.12030981 679.09334936 -268.13171387 675.67588806 C-270.63073961 674.25482404 -273.12880139 672.8320704 -275.62677002 671.40914917 C-277.35521495 670.42548108 -279.08504886 669.44425483 -280.81494141 668.46313477 C-311.48439548 650.99049216 -311.48439548 650.99049216 -315.54118824 637.34699249 C-317.192482 629.64115699 -316.76080821 621.65853746 -316.73649597 613.81726074 C-316.73808524 611.96387119 -316.74055001 610.11048222 -316.74381238 608.25709486 C-316.75021478 603.17546954 -316.74416627 598.09392412 -316.7360481 593.01230407 C-316.72946221 587.52757373 -316.73442153 582.0428522 -316.7379303 576.55812073 C-316.74296944 565.81800009 -316.73733419 555.07791027 -316.72808 544.33779347 C-316.71769086 531.83044438 -316.71776633 519.32310194 -316.71825258 506.81574935 C-316.71876825 483.82518923 -316.70873407 460.83464251 -316.69375014 437.84408843 C-316.68012666 416.86366729 -316.67388888 395.88325755 -316.67456055 374.90283203 C-316.67460096 373.55565236 -316.67464132 372.20847269 -316.67468163 370.86129302 C-316.67470198 370.19526778 -316.67472233 369.52924255 -316.67474329 368.84303473 C-316.67484409 365.49023309 -316.67493468 362.13743146 -316.67501354 358.78462982 C-316.67503026 358.12314922 -316.67504697 357.46166862 -316.67506419 356.78014315 C-316.67550792 335.47641174 -316.66838692 314.17268247 -316.6606507 292.86895272 C-316.65763494 284.15070769 -316.6565712 275.43246364 -316.65611839 266.71421814 C-316.65543604 256.08961547 -316.65096832 245.46502183 -316.64178558 234.84042299 C-316.63717064 229.41962905 -316.63412098 223.99884665 -316.63537979 218.57805061 C-316.63647639 213.61509425 -316.63294682 208.65216342 -316.62573127 203.68921238 C-316.62392107 201.89458304 -316.62378459 200.09995107 -316.62549856 198.30532163 C-316.64875516 170.92011977 -316.64875516 170.92011977 -308.26660156 161.4296875 C-305.88310616 159.35787995 -303.3129579 157.80604573 -300.61425781 156.16601562 C-299.75333275 155.64243469 -299.75333275 155.64243469 -298.87501526 155.10827637 C-292.78791503 151.4254087 -286.61498747 147.89440135 -280.42675781 144.38476562 C-279.20982503 143.69229608 -277.99303155 142.99958168 -276.77636719 142.30664062 C-274.26176196 140.87471435 -271.7465757 139.44381693 -269.23095703 138.01367188 C-263.31144489 134.64719737 -257.40097057 131.2649096 -251.48925781 127.88476562 C-250.32604162 127.22015795 -249.16279285 126.55560729 -247.99951172 125.89111328 C-242.71888335 122.87462506 -237.43901835 119.85682976 -232.162323 116.83346558 C-229.20922766 115.14148722 -226.25562792 113.45039098 -223.30175781 111.75976562 C-222.72075317 111.42720764 -222.13974854 111.09464966 -221.5411377 110.75201416 C-213.3014063 106.03806664 -205.0312894 101.38108568 -196.73925781 96.75976562 C-187.59480211 91.66261964 -178.5356669 86.43477816 -169.5078125 81.13427734 C-161.34807286 76.35553476 -153.10717674 71.73299877 -144.84472656 67.13476562 C-137.67572086 63.1351211 -130.56833019 59.04128518 -123.48925781 54.88476562 C-114.34012493 49.51279769 -105.1152265 44.29400037 -95.84472656 39.13476562 C-88.6757067 35.1351132 -81.56866738 31.04072721 -74.48925781 26.88476562 C-63.15744261 20.24217059 -51.75915224 13.73152172 -40.24365234 7.41210938 C-37.78391285 6.04815526 -35.35186884 4.64612391 -32.92285156 3.22851562 C-22.13701541 -2.89185517 -11.69084506 -5.27173385 0 0 Z " fill="#010100" transform="translate(538.4892578125,140.115234375)"/>
<path d="M0 0 C0 119.46 0 238.92 0 362 C-3.96 363.98 -7.92 365.96 -12 368 C-14.27079658 369.29759804 -16.52410153 370.6268089 -18.75 372 C-20.02643845 372.77882941 -21.30385502 373.5560571 -22.58203125 374.33203125 C-23.2776416 374.75436035 -23.97325195 375.17668945 -24.68994141 375.61181641 C-29.24555513 378.34942152 -33.84393635 381.01424487 -38.4375 383.6875 C-39.97543213 384.58287476 -39.97543213 384.58287476 -41.54443359 385.49633789 C-43.6507538 386.72238293 -45.75720012 387.94821132 -47.86376953 389.17382812 C-50.89908788 390.94124065 -53.93238501 392.71206132 -56.96484375 394.484375 C-68.3836305 401.15705447 -79.82449244 407.78990607 -91.28417969 414.39208984 C-101.54796437 420.30855336 -111.78186455 426.27554062 -122.01025391 432.25292969 C-127.10993502 435.23294913 -132.2109944 438.21060518 -137.3125 441.1875 C-138.81707764 442.06547241 -138.81707764 442.06547241 -140.35205078 442.96118164 C-146.39479983 446.48554101 -152.44401975 449.99843183 -158.5 453.5 C-165.79639088 457.72103958 -173.08931035 461.9480114 -180.375 466.1875 C-181.90979004 467.08021606 -181.90979004 467.08021606 -183.47558594 467.9909668 C-189.93136739 471.75823985 -196.3158495 475.61220412 -202.609375 479.64453125 C-204.81909446 480.89742774 -206.5521433 481.45068546 -209 482 C-209.38913865 436.30873035 -209.68867676 390.61763614 -209.8681106 344.92503599 C-209.88937253 339.53026217 -209.91137602 334.13549161 -209.93383789 328.74072266 C-209.93829717 327.66672444 -209.94275645 326.59272623 -209.94735085 325.48618262 C-210.02131771 308.09747454 -210.15535014 290.70972222 -210.31159753 273.32158108 C-210.47059355 255.47869664 -210.56500266 237.63631259 -210.59950441 219.79274881 C-210.62282839 208.78225692 -210.69647192 197.77446619 -210.83457994 186.76480596 C-210.92446977 179.21420054 -210.95159788 171.66499053 -210.92952342 164.11388893 C-210.91863459 159.75647494 -210.93526141 155.40377693 -211.02649307 151.04720306 C-211.5337042 125.58663096 -211.5337042 125.58663096 -207.35274959 119.66820478 C-203.43253881 116.10038839 -199.16177763 114.25645257 -194.13755786 112.73266864 C-190.73329314 111.56582397 -187.95392732 109.69752958 -184.9375 107.75 C-178.47315242 103.8551368 -171.95979576 100.04691528 -165.4375 96.25 C-153.92851222 89.54990668 -142.45646484 82.78943694 -131 76 C-129.93346191 75.36803711 -128.86692383 74.73607422 -127.76806641 74.08496094 C-124.34530287 72.05676671 -120.9226331 70.02841432 -117.5 68 C-113.00010799 65.33315107 -108.50011045 62.66648031 -104 60 C-103.02498535 59.42217773 -102.0499707 58.84435547 -101.04541016 58.24902344 C-90.67748612 52.10653791 -80.2911377 45.99790377 -69.875 39.9375 C-61.69686151 35.17798962 -53.55638331 30.36190326 -45.45239258 25.47729492 C-38.24945799 21.13818641 -31.00912441 16.86397521 -23.76000977 12.60253906 C-19.75604314 10.24332252 -15.76421311 7.87350407 -11.828125 5.40234375 C-11.22282959 5.02239258 -10.61753418 4.64244141 -9.99389648 4.25097656 C-8.44595101 3.27190723 -6.90430454 2.28289762 -5.36328125 1.29296875 C-3 0 -3 0 0 0 Z " fill="#FAFAFA" transform="translate(861,440)"/>
<path d="M0 0 C3.36115663 1.09863432 6.33495207 2.92348387 9.38745117 4.67822266 C10.45467407 5.2848877 10.45467407 5.2848877 11.54345703 5.90380859 C16.72748998 8.86545667 21.84402147 11.93103432 26.94873047 15.02661133 C34.58368914 19.62991269 42.37239061 23.96283682 50.14135742 28.33447266 C58.38644849 32.97427525 66.59461113 37.67844255 74.80493164 42.37939453 C76.8118763 43.52770014 78.81992973 44.67401607 80.82885742 45.81884766 C88.25513974 50.05260305 95.65670921 54.32750338 103.05249023 58.61425781 C111.80798703 63.68683121 120.5949948 68.70329952 129.39526367 73.69775391 C131.28850246 74.77455991 133.18173163 75.85138282 135.07495117 76.92822266 C136.42049072 77.68993774 136.42049072 77.68993774 137.79321289 78.46704102 C141.44939593 80.54837465 145.07202499 82.62301699 148.55151367 84.99072266 C150.83436136 86.51733287 152.39073749 87.2652667 155.07495117 87.67822266 C155.07495117 88.33822266 155.07495117 88.99822266 155.07495117 89.67822266 C155.9025293 89.91412109 156.73010742 90.15001953 157.58276367 90.39306641 C161.70782694 91.9111266 165.20750154 93.96229723 168.94995117 96.24072266 C170.47262562 97.1521549 171.99608083 98.06228389 173.52026367 98.97119141 C174.285 99.42800293 175.04973633 99.88481445 175.83764648 100.35546875 C179.13800065 102.30672572 182.47703612 104.18509632 185.82495117 106.05322266 C194.81553228 111.079631 203.75323073 116.1973491 212.69213867 121.31494141 C214.74581184 122.48991179 216.80052719 123.66300779 218.85620117 124.83447266 C226.27339677 129.06296734 233.66579318 133.33276864 241.05249023 137.61425781 C247.38203622 141.28133546 253.72720073 144.91966563 260.08276367 148.54150391 C262.40432111 149.86615727 264.72406258 151.19396204 267.04370117 152.52197266 C268.84573738 153.553305 270.64782167 154.58455334 272.44995117 155.61572266 C273.34657471 156.12876953 274.24319824 156.64181641 275.16699219 157.17041016 C280.04643875 159.9589181 284.93537518 162.72887579 289.84106445 165.47094727 C292.92505459 167.19617153 296.00086456 168.93540522 299.07495117 170.67822266 C299.98631836 171.19255859 300.89768555 171.70689453 301.83666992 172.23681641 C304.07495117 173.55322266 304.07495117 173.55322266 307.07495117 175.67822266 C307.07495117 176.66822266 307.07495117 177.65822266 307.07495117 178.67822266 C305.52940552 179.3151001 305.52940552 179.3151001 303.95263672 179.96484375 C300.49573128 181.44862866 297.27750023 183.18309551 294.03198242 185.09228516 C293.47417084 185.41925385 292.91635925 185.74622253 292.34164429 186.08309937 C290.52102162 187.15219268 288.70417022 188.22751145 286.88745117 189.30322266 C285.60474714 190.05858756 284.32194928 190.81379317 283.0390625 191.56884766 C273.46155147 197.21717481 263.95610817 202.98133563 254.46600342 208.77493286 C247.45292146 213.05463393 240.41698161 217.25942119 233.22265625 221.22802734 C226.72176398 224.83082883 220.33889997 228.63148824 213.94995117 232.42822266 C213.36543182 232.7755545 212.78091248 233.12288635 212.17868042 233.48074341 C209.82605966 234.87907445 207.47370502 236.27785129 205.1217804 237.67735291 C199.77964641 240.85587296 194.42837877 244.01877404 189.07495117 247.17822266 C183.17110163 250.66351617 177.27057605 254.15427622 171.37573242 257.65478516 C169.04641825 259.03778794 166.71699525 260.42060716 164.38745117 261.80322266 C163.8111496 262.14526733 163.23484802 262.48731201 162.64108276 262.83972168 C154.75335436 267.51925663 146.8384476 272.14706918 138.88964844 276.72192383 C132.15559264 280.60772071 125.48822627 284.6015238 118.83300781 288.62060547 C117.29238927 289.5503466 115.74968368 290.47664107 114.20458984 291.39892578 C112.82619021 292.22694528 111.45585451 293.06860407 110.09570312 293.92626953 C105.68372153 296.63481289 105.68372153 296.63481289 102.77416992 296.84228516 C97.58321057 295.45130964 93.38851549 293.32747072 88.86010742 290.44384766 C85.7362389 288.46349903 82.54240148 286.62517371 79.32495117 284.80322266 C78.11264684 284.11323224 76.90040777 283.42312714 75.68823242 282.73291016 C74.78258545 282.21809082 74.78258545 282.21809082 73.85864258 281.69287109 C71.07414302 280.10891542 68.29345312 278.51830918 65.51245117 276.92822266 C61.40679639 274.58121055 57.30009573 272.23604694 53.19213867 269.89306641 C44.49283112 264.92944882 35.80198054 259.95234861 27.13745117 254.92822266 C18.20455148 249.7487883 9.26608376 244.57966186 0.25463867 239.53759766 C-6.68257083 235.65576871 -13.58340425 231.72659321 -20.42504883 227.67822266 C-28.52301371 222.88676404 -36.70405914 218.25476 -44.92504883 213.67822266 C-45.91504883 213.12650391 -46.90504883 212.57478516 -47.92504883 212.00634766 C-49.92373833 210.89457662 -51.92341517 209.78468126 -53.92504883 208.67822266 C-53.92504883 208.01822266 -53.92504883 207.35822266 -53.92504883 206.67822266 C-54.58891602 206.60603516 -55.2527832 206.53384766 -55.93676758 206.45947266 C-60.00508198 205.39586105 -63.17280489 203.36497788 -66.73754883 201.17822266 C-68.26931769 200.25764734 -69.80188784 199.33840416 -71.33520508 198.42041016 C-72.10622559 197.95731445 -72.87724609 197.49421875 -73.67163086 197.01708984 C-76.97431421 195.05480214 -80.3198482 193.17385544 -83.67504883 191.30322266 C-90.10707467 187.70500038 -96.5219487 184.07769858 -102.92504883 180.42822266 C-104.2336084 179.68499756 -104.2336084 179.68499756 -105.56860352 178.92675781 C-110.17601537 176.29761474 -114.71083189 173.58787244 -119.19555664 170.75488281 C-121.35297024 169.41182889 -123.55827953 168.18708775 -125.80004883 166.99072266 C-137.12227031 160.87484125 -148.38097384 154.68017528 -159.38330078 148.00317383 C-167.14395953 143.30753639 -175.07999262 138.92243418 -183.01000977 134.52099609 C-191.48815608 129.81354982 -199.82277754 125.01679548 -207.92504883 119.67822266 C-206.45315179 115.26253156 -202.96137394 114.23967338 -199.05004883 112.17822266 C-197.3825281 111.27615382 -195.7158868 110.37245774 -194.05004883 109.46728516 C-193.19282227 109.00354492 -192.3355957 108.53980469 -191.45239258 108.06201172 C-187.61222041 105.95941359 -183.83067817 103.76058247 -180.05004883 101.55322266 C-172.1115481 96.93509632 -164.14942921 92.35905044 -156.17504883 87.80322266 C-155.57677277 87.46139954 -154.9784967 87.11957642 -154.36209106 86.76739502 C-145.30955089 81.59690844 -136.24030486 76.45640154 -127.16088867 71.33325195 C-118.25341498 66.30514148 -109.37264536 61.23094575 -100.49584961 56.14892578 C-97.9512235 54.69319666 -95.40519118 53.2399607 -92.85864258 51.78759766 C-83.2393704 46.30008103 -73.63784268 40.78306965 -64.05004883 35.24072266 C-54.82720371 29.91103322 -45.57626291 24.63454899 -36.29711914 19.40356445 C-29.62040663 15.6392961 -22.95544296 11.85506066 -16.30004883 8.05322266 C-15.42888428 7.55604736 -14.55771973 7.05887207 -13.66015625 6.54663086 C-12.44162964 5.84993286 -12.44162964 5.84993286 -11.19848633 5.13916016 C-10.44664062 4.7121582 -9.69479492 4.28515625 -8.92016602 3.84521484 C-7.27392693 2.88228988 -5.67396133 1.8407178 -4.08911133 0.77978516 C-1.92504883 -0.32177734 -1.92504883 -0.32177734 0 0 Z " fill="#FAFAFA" transform="translate(527.925048828125,221.32177734375)"/>
<path d="M0 0 C3.59546584 1.80611179 7.04474749 3.84417697 10.51074219 5.88476562 C12.4444164 6.9897707 14.37940551 8.09247674 16.31542969 9.19335938 C21.31515667 12.04913302 26.29507232 14.93751874 31.269104 17.83776855 C37.6196881 21.53707322 44.00179873 25.18090888 50.38574219 28.82226562 C51.55781414 29.49139519 52.7298518 30.16058483 53.90185547 30.82983398 C57.43778804 32.84878083 60.97421811 34.86685512 64.51074219 36.88476562 C69.21949128 39.57153774 73.92797137 42.25877967 78.63574219 44.94726562 C79.50655426 45.44454666 79.50655426 45.44454666 80.3949585 45.95187378 C89.85451931 51.35505891 99.29374764 56.79295508 108.7265625 62.24267578 C120.12220119 68.82264919 131.54963576 75.34667934 142.97851562 81.86865234 C146.49254898 83.87412377 150.00569188 85.88115093 153.51855469 87.88867188 C154.09574249 88.21851578 154.6729303 88.54835968 155.26760864 88.88819885 C158.17898304 90.55201921 161.09025507 92.21601857 164.00146484 93.88012695 C169.28728046 96.90137816 174.57372339 99.92150367 179.86335754 102.93606567 C182.82957613 104.62655637 185.79529339 106.31792498 188.76074219 108.00976562 C189.34369049 108.34232361 189.92663879 108.67488159 190.5272522 109.01751709 C198.61320188 113.6326461 206.6664699 118.30098375 214.69824219 123.00976562 C223.78641418 128.33705504 232.95130378 133.512401 242.15600586 138.63525391 C250.32608405 143.1931971 258.40876561 147.88869342 266.47583008 152.62597656 C274.80237081 157.50264795 283.21279044 162.21937995 291.64306641 166.91381836 C298.19629528 170.56955372 304.69053479 174.30643587 311.14160156 178.13891602 C316.86597518 181.53004482 322.65027543 184.80882743 328.44824219 188.07226562 C340.19749694 194.68836997 351.88662994 201.40549391 363.55078125 208.17041016 C366.27128331 209.7460754 368.9959419 211.31427633 371.72167969 212.88085938 C373.23493149 213.75676254 374.74797022 214.63303399 376.26074219 215.50976562 C376.92122559 215.88705811 377.58170898 216.26435059 378.26220703 216.65307617 C384.23708748 220.13672197 389.26584383 223.73988939 392.76074219 229.88476562 C393.24027344 230.70976562 393.71980469 231.53476562 394.21386719 232.38476562 C396.92285978 237.60692002 397.80193643 241.77927132 397.77080441 247.65606213 C397.77461008 248.43548728 397.77841575 249.21491243 397.78233674 250.01795653 C397.7926736 252.63941327 397.78874249 255.26065432 397.78489685 257.88212585 C397.78934812 259.77672453 397.7946618 261.67132134 397.80076557 263.56591541 C397.8149694 268.78005077 397.81660841 273.99412659 397.81616867 279.20827854 C397.81781478 284.82876058 397.83087746 290.44921794 397.84236145 296.06968689 C397.8652267 308.36305827 397.87313372 320.6564124 397.87818789 332.94980216 C397.88144317 340.62436731 397.88796462 348.29892745 397.89518929 355.97348976 C397.91475727 377.21797805 397.93124158 398.46246059 397.93406582 419.70695782 C397.93415988 420.38649127 397.93425394 421.06602473 397.93435085 421.7661501 C397.93472933 424.51999948 397.93509333 427.27384885 397.93545383 430.02769822 C397.93572555 432.10041535 397.93600223 434.17313248 397.9362793 436.24584961 C397.93636732 436.93075523 397.93645534 437.61566084 397.93654603 438.32132118 C397.93945104 459.83819659 397.96154279 481.35498215 397.99780273 502.87182617 C398.03853847 527.04525498 398.06220487 551.21860239 398.06252533 575.39207298 C398.06311027 588.19148606 398.0716258 600.9907835 398.10052299 613.79016685 C398.12501511 624.68863109 398.13233436 635.5869375 398.11727547 646.4854218 C398.11009775 652.0461676 398.11100149 657.60660162 398.13368607 663.16731262 C398.15426061 668.25956939 398.1516896 673.35127436 398.13081122 678.44352505 C398.12731344 680.2840569 398.13223849 682.12462844 398.14651566 683.96510824 C398.22274841 694.47082932 398.16527419 703.69213741 390.6923427 711.87620753 C385.42341492 716.98819839 378.87475493 720.39693632 372.51074219 723.94726562 C370.76895277 724.93513152 369.02717277 725.92301476 367.28613281 726.91220093 C365.51076877 727.91990679 363.7334304 728.92407029 361.95605469 729.92822266 C356.78038241 732.86741183 351.64542077 735.87472254 346.51074219 738.88476562 C338.25919115 743.71034935 329.98486919 748.4947064 321.69824219 753.25976562 C312.76199901 758.40131224 303.87163093 763.61447199 295.01074219 768.88476562 C285.07563231 774.79398623 275.094233 780.61555566 265.07373047 786.37866211 C257.83045809 790.54455873 250.60142065 794.73375225 243.38574219 798.94726562 C241.90980591 799.80904419 241.90980591 799.80904419 240.40405273 800.68823242 C237.4393238 802.41991084 234.47496092 804.15221402 231.51074219 805.88476562 C227.55288745 808.198086 223.59463556 810.51072312 219.63574219 812.82226562 C218.64856201 813.39871826 217.66138184 813.9751709 216.64428711 814.5690918 C209.34462861 818.82678222 202.02373003 823.04671542 194.69824219 827.25976562 C185.65646592 832.46138168 176.66258146 837.73878527 167.69824219 843.07226562 C158.00881546 848.83577408 148.26974336 854.49779112 138.46386719 860.06054688 C135.06354934 861.99156665 131.68035315 863.94893629 128.30761719 865.92773438 C127.45941406 866.42426514 126.61121094 866.9207959 125.73730469 867.43237305 C124.15169631 868.36226108 122.56815646 869.2956909 120.98730469 870.23364258 C109.42681886 877.0018616 99.98578822 879.86384078 86.51074219 877.88476562 C82.15304507 876.53757578 78.47753939 874.5691197 74.60546875 872.17333984 C72.1589253 870.66834494 69.67792127 869.23121955 67.19042969 867.79492188 C63.10163566 865.42983513 59.02553479 863.04463846 54.95605469 860.64648438 C48.54526865 856.88456561 42.06854653 853.24827373 35.57324219 849.63476562 C28.07022302 845.45606432 20.61145241 841.2239011 13.22705078 836.83935547 C6.5911999 832.90880525 -0.102794 829.08148446 -6.80175781 825.25976562 C-7.69684555 824.74908539 -7.69684555 824.74908539 -8.61001587 824.22808838 C-11.67698746 822.47857484 -14.74440422 820.72984356 -17.81201172 818.98144531 C-23.12789984 815.95116619 -28.43999131 812.91424556 -33.7522583 809.87762451 C-36.65531105 808.21825633 -39.55862604 806.55934712 -42.46191406 804.90039062 C-43.62744266 804.23437719 -44.79297 803.56836156 -45.95849609 802.90234375 C-46.53867493 802.57081299 -47.11885376 802.23928223 -47.71661377 801.89770508 C-53.10205069 798.82031255 -53.10205069 798.82031255 -54.91888428 797.78211975 C-56.12709303 797.0917162 -57.33530429 796.40131701 -58.54351807 795.71092224 C-61.52142107 794.0092886 -64.499282 792.3075814 -67.47705078 790.60571289 C-72.65077203 787.64893666 -77.82482503 784.69275443 -83.00097656 781.74023438 C-92.36590438 776.3969353 -101.71536849 771.02779195 -111.05175781 765.63476562 C-123.66406961 758.35010049 -136.3069922 751.11971464 -148.95703125 743.90087891 C-155.38528827 740.23224959 -161.81073426 736.55869789 -168.23669434 732.88604736 C-169.98492711 731.88689149 -171.7331787 730.88776854 -173.48144531 729.88867188 C-174.05854248 729.55887329 -174.63563965 729.22907471 -175.23022461 728.88928223 C-178.74974284 726.87816402 -182.26991607 724.86819747 -185.79058838 722.85910034 C-198.78029137 715.446369 -211.75497825 708.00865474 -224.70507812 700.52685547 C-232.57982686 695.97988459 -240.46810076 691.45692399 -248.36425781 686.94726562 C-248.94031769 686.61815186 -249.51637756 686.28903809 -250.1098938 685.94995117 C-256.11405455 682.51978227 -262.12030981 679.09334936 -268.13171387 675.67588806 C-270.63073961 674.25482404 -273.12880139 672.8320704 -275.62677002 671.40914917 C-277.35521495 670.42548108 -279.08504886 669.44425483 -280.81494141 668.46313477 C-311.48439548 650.99049216 -311.48439548 650.99049216 -315.54118824 637.34699249 C-317.192482 629.64115699 -316.76080821 621.65853746 -316.73649597 613.81726074 C-316.73808524 611.96387119 -316.74055001 610.11048222 -316.74381238 608.25709486 C-316.75021478 603.17546954 -316.74416627 598.09392412 -316.7360481 593.01230407 C-316.72946221 587.52757373 -316.73442153 582.0428522 -316.7379303 576.55812073 C-316.74296944 565.81800009 -316.73733419 555.07791027 -316.72808 544.33779347 C-316.71769086 531.83044438 -316.71776633 519.32310194 -316.71825258 506.81574935 C-316.71876825 483.82518923 -316.70873407 460.83464251 -316.69375014 437.84408843 C-316.68012666 416.86366729 -316.67388888 395.88325755 -316.67456055 374.90283203 C-316.67460096 373.55565236 -316.67464132 372.20847269 -316.67468163 370.86129302 C-316.67470198 370.19526778 -316.67472233 369.52924255 -316.67474329 368.84303473 C-316.67484409 365.49023309 -316.67493468 362.13743146 -316.67501354 358.78462982 C-316.67503026 358.12314922 -316.67504697 357.46166862 -316.67506419 356.78014315 C-316.67550792 335.47641174 -316.66838692 314.17268247 -316.6606507 292.86895272 C-316.65763494 284.15070769 -316.6565712 275.43246364 -316.65611839 266.71421814 C-316.65543604 256.08961547 -316.65096832 245.46502183 -316.64178558 234.84042299 C-316.63717064 229.41962905 -316.63412098 223.99884665 -316.63537979 218.57805061 C-316.63647639 213.61509425 -316.63294682 208.65216342 -316.62573127 203.68921238 C-316.62392107 201.89458304 -316.62378459 200.09995107 -316.62549856 198.30532163 C-316.64875516 170.92011977 -316.64875516 170.92011977 -308.26660156 161.4296875 C-305.88310616 159.35787995 -303.3129579 157.80604573 -300.61425781 156.16601562 C-299.75333275 155.64243469 -299.75333275 155.64243469 -298.87501526 155.10827637 C-292.78791503 151.4254087 -286.61498747 147.89440135 -280.42675781 144.38476562 C-279.20982503 143.69229608 -277.99303155 142.99958168 -276.77636719 142.30664062 C-274.26176196 140.87471435 -271.7465757 139.44381693 -269.23095703 138.01367188 C-263.31144489 134.64719737 -257.40097057 131.2649096 -251.48925781 127.88476562 C-250.32604162 127.22015795 -249.16279285 126.55560729 -247.99951172 125.89111328 C-242.71888335 122.87462506 -237.43901835 119.85682976 -232.162323 116.83346558 C-229.20922766 115.14148722 -226.25562792 113.45039098 -223.30175781 111.75976562 C-222.72075317 111.42720764 -222.13974854 111.09464966 -221.5411377 110.75201416 C-213.3014063 106.03806664 -205.0312894 101.38108568 -196.73925781 96.75976562 C-187.59480211 91.66261964 -178.5356669 86.43477816 -169.5078125 81.13427734 C-161.34807286 76.35553476 -153.10717674 71.73299877 -144.84472656 67.13476562 C-137.67572086 63.1351211 -130.56833019 59.04128518 -123.48925781 54.88476562 C-114.34012493 49.51279769 -105.1152265 44.29400037 -95.84472656 39.13476562 C-88.6757067 35.1351132 -81.56866738 31.04072721 -74.48925781 26.88476562 C-63.15744261 20.24217059 -51.75915224 13.73152172 -40.24365234 7.41210938 C-37.78391285 6.04815526 -35.35186884 4.64612391 -32.92285156 3.22851562 C-22.13701541 -2.89185517 -11.69084506 -5.27173385 0 0 Z M-35.06738281 38.17773438 C-40.10090897 41.29653307 -45.26110904 44.17943265 -50.42675781 47.07226562 C-58.55822717 51.63848121 -66.63477239 56.28782438 -74.67675781 61.00976562 C-82.68979053 65.71078771 -90.76184682 70.26996878 -98.92285156 74.70825195 C-106.44272057 78.81657722 -113.82779085 83.14266678 -121.21582031 87.48242188 C-128.42480559 91.70679541 -135.68782126 95.82253046 -142.98925781 99.88476562 C-152.38388724 105.11223309 -161.68985452 110.47449806 -170.96191406 115.91601562 C-177.47097195 119.72870916 -184.02871183 123.4331369 -190.63916016 127.06640625 C-196.83682624 130.48790485 -202.94636925 134.05168045 -209.05175781 137.63476562 C-217.31224116 142.4814778 -225.62041221 147.22770766 -233.98925781 151.88476562 C-246.25628223 158.71454559 -258.39907941 165.74708335 -270.48925781 172.88476562 C-271.40408936 173.41851807 -272.3189209 173.95227051 -273.26147461 174.50219727 C-274.14359619 175.02160889 -275.02571777 175.54102051 -275.93457031 176.07617188 C-277.10850342 176.7636853 -277.10850342 176.7636853 -278.30615234 177.46508789 C-285.1593824 181.92175673 -288.60505866 186.96521651 -291.05135608 194.65069801 C-291.66249186 197.7685634 -291.61758072 200.76515526 -291.62068558 203.94234753 C-291.62273821 204.65676023 -291.62479084 205.37117293 -291.62690568 206.10723451 C-291.63258334 208.51349803 -291.63111749 210.91970445 -291.62969971 213.32597351 C-291.63228291 215.06367792 -291.63529594 216.80138174 -291.63870311 218.53908473 C-291.64678172 223.32413893 -291.64856316 228.10917814 -291.64930058 232.89423835 C-291.65114964 238.05117501 -291.65869624 243.20810386 -291.66543579 248.36503601 C-291.67902585 259.64603434 -291.68504491 270.92702912 -291.68944645 282.20803428 C-291.69220779 289.25023521 -291.69644495 296.29243477 -291.70095062 303.33463478 C-291.71314427 322.82738375 -291.72344333 342.32013163 -291.72682571 361.81288433 C-291.72704528 363.06081174 -291.72726485 364.30873914 -291.72749107 365.59448253 C-291.72770934 366.84541905 -291.72792762 368.09635556 -291.72815251 369.38519925 C-291.72859598 371.92012958 -291.72904255 374.45505991 -291.72949219 376.98999023 C-291.72971362 378.24740687 -291.72993505 379.5048235 -291.73016319 380.80034367 C-291.73411147 401.17651719 -291.75156601 421.55265496 -291.77485171 441.92881467 C-291.7985586 462.84212569 -291.81102727 483.75541876 -291.81219363 504.66874343 C-291.81311078 516.413441 -291.818873 528.15809198 -291.83701324 539.90277672 C-291.85240529 549.90352091 -291.85753998 559.90420413 -291.84927514 569.90495791 C-291.84536545 575.00779308 -291.84631387 580.11050541 -291.86033249 585.2133255 C-291.87305211 589.88602661 -291.87189089 594.55851234 -291.85974178 599.23121307 C-291.85778142 600.92034276 -291.86087884 602.6094876 -291.86958614 604.29859599 C-291.90996307 612.6616724 -291.8510886 620.06176702 -288.48925781 627.88476562 C-288.14507812 628.70847656 -287.80089844 629.5321875 -287.44628906 630.38085938 C-282.68022595 638.4652736 -274.41759688 642.40243345 -266.48925781 646.88476562 C-265.50143311 647.4491333 -265.50143311 647.4491333 -264.49365234 648.02490234 C-261.23682654 649.88348396 -257.96764257 651.7182653 -254.68847656 653.53710938 C-250.08843863 656.09535501 -245.53884181 658.73812603 -240.98925781 661.38476562 C-235.17933322 664.76111016 -229.35382601 668.10423363 -223.48925781 671.38476562 C-216.92940032 675.05556246 -210.41878957 678.80666304 -203.91821289 682.58129883 C-195.24160798 687.61647693 -186.52895612 692.58803917 -177.81494141 697.55810547 C-174.70538343 699.33191799 -171.5972645 701.10823636 -168.48925781 702.88476562 C-167.40644531 703.50351562 -166.32363281 704.12226562 -165.20800781 704.75976562 C-162.29134115 706.42643229 -159.37467448 708.09309896 -156.45800781 709.75976562 C-155.11778564 710.5255896 -155.11778564 710.5255896 -153.75048828 711.30688477 C-151.91092998 712.35808417 -150.07141169 713.40935361 -148.23193359 714.46069336 C-144.38893345 716.65704047 -140.54586311 718.85324828 -136.70019531 721.04492188 C-130.11526245 724.80002996 -123.5476123 728.58346758 -116.98925781 732.38476562 C-107.90996897 737.64649345 -98.8269266 742.90133681 -89.66894531 748.02539062 C-81.95810686 752.34000315 -74.30314121 756.73329647 -66.69604492 761.22851562 C-60.6682332 764.78830662 -54.59970424 768.27255603 -48.51367188 771.73193359 C-46.17803831 773.0619941 -43.84524287 774.39695689 -41.51269531 775.73242188 C-33.43792575 780.35459245 -25.35985777 784.96851315 -17.23925781 789.50976562 C-10.93701716 793.03511401 -4.71295152 796.68339635 1.5012207 800.36132812 C6.21659504 803.14463686 10.97959407 805.81382768 15.79980469 808.41210938 C23.07063087 812.36182331 30.25034372 816.45276188 37.26464844 820.84179688 C38.07281006 821.34557861 38.88097168 821.84936035 39.71362305 822.3684082 C41.30412082 823.36413259 42.88976855 824.3676548 44.4699707 825.37963867 C45.19756592 825.83508057 45.92516113 826.29052246 46.67480469 826.75976562 C47.64087646 827.37464844 47.64087646 827.37464844 48.62646484 828.00195312 C50.76763073 829.1676053 50.76763073 829.1676053 54.51074219 828.88476562 C54.51074219 829.54476562 54.51074219 830.20476563 54.51074219 830.88476562 C55.15398437 831.22507812 55.79722656 831.56539062 56.45996094 831.91601562 C62.95056587 835.39742426 69.18928548 839.14372083 75.37011719 843.15039062 C80.82221613 846.16125124 85.76160147 847.14879126 91.94824219 847.00976562 C93.52412109 846.98269531 93.52412109 846.98269531 95.13183594 846.95507812 C95.916875 846.931875 96.70191406 846.90867187 97.51074219 846.88476562 C97.51074219 846.22476563 97.51074219 845.56476562 97.51074219 844.88476562 C99.21230469 844.82289063 99.21230469 844.82289063 100.94824219 844.75976562 C105.48339308 844.17611142 108.16799103 842.34774878 111.83105469 839.72070312 C114.9109114 837.61059721 118.11818176 835.80585849 121.38574219 834.00976562 C128.91102864 829.84350756 136.30867197 825.47379704 143.69824219 821.07226562 C152.66303998 815.73588118 161.66349705 810.4724317 170.73486328 805.31860352 C180.35715805 799.84766269 189.90795005 794.25530145 199.46240234 788.66699219 C204.47621636 785.73564169 209.49361231 782.810436 214.51074219 779.88476562 C220.48852784 776.39857429 226.46580211 772.91152338 232.44042969 769.41992188 C243.87152726 762.74175435 255.32362331 756.1015491 266.79492188 749.49267578 C277.05870656 743.57621226 287.29260674 737.609225 297.52099609 731.63183594 C302.62067731 728.65181644 307.72182529 725.67431259 312.82324219 722.69726562 C313.82194336 722.11412598 314.82064453 721.53098633 315.84960938 720.93017578 C321.23376913 717.78838312 326.6264094 714.66220992 332.03027344 711.55444336 C335.0946157 709.78882576 338.15220199 708.01186051 341.20654297 706.22900391 C342.79440952 705.3026643 344.38403658 704.37933806 345.97509766 703.45849609 C348.43271028 702.03076761 350.87895728 700.58516815 353.32324219 699.13476562 C354.05849121 698.71106689 354.79374023 698.28736816 355.55126953 697.85083008 C362.61395924 693.61141329 367.22910932 688.48662012 370.51074219 680.88476562 C370.95663228 677.36023781 370.95663228 677.36023781 370.88826561 673.53423595 C370.89262593 672.81245044 370.89698625 672.09066493 370.90147871 671.34700713 C370.91243016 668.92753226 370.90201368 666.50862784 370.89169312 664.0891571 C370.89514974 662.33734988 370.89991434 660.58554484 370.90587485 658.83374435 C370.91841418 654.018948 370.91220107 649.20432973 370.90291619 644.38953269 C370.89613791 639.1971761 370.90660097 634.00485047 370.91485596 628.8125 C370.92820937 618.63945525 370.92530814 608.46647683 370.91661803 598.29342946 C370.90984711 590.02514608 370.90892221 581.75688131 370.91218948 573.48859596 C370.91264918 572.31247888 370.91310888 571.1363618 370.91358251 569.92460481 C370.91454168 567.53542059 370.91551432 565.14623637 370.91650029 562.75705216 C370.92505918 540.34229059 370.91521279 517.9275658 370.89909919 495.51281027 C370.8857008 476.27976197 370.88801919 457.04676801 370.90185547 437.8137207 C370.91791148 415.48465337 370.92422964 393.15561831 370.91501868 370.82654601 C370.91406303 368.44515821 370.91311991 366.0637704 370.91218948 363.68238258 C370.91149524 361.92481679 370.91149524 361.92481679 370.91078698 360.13174462 C370.90819677 351.87489246 370.91256888 343.61806077 370.91962814 335.36121178 C370.92804379 325.29646097 370.9257618 315.23178034 370.90978591 305.16703757 C370.90190332 300.03179091 370.8988114 294.89666126 370.90873337 289.76141548 C370.91768122 285.05917742 370.91274578 280.35716468 370.89680071 275.65494702 C370.89345325 273.95511433 370.89514621 272.25526256 370.90242808 270.55544218 C371.36994771 256.65086238 371.36994771 256.65086238 365.44824219 244.57226562 C364.48917969 243.73695313 364.48917969 243.73695313 363.51074219 242.88476562 C363.22199219 242.24490723 362.93324219 241.60504883 362.63574219 240.94580078 C361.27110304 238.44573921 360.01642376 237.65380805 357.57324219 236.22070312 C356.76959229 235.74342773 355.96594238 235.26615234 355.13793945 234.77441406 C353.83747681 234.02466309 353.83747681 234.02466309 352.51074219 233.25976562 C351.17064087 232.47134277 351.17064087 232.47134277 349.8034668 231.66699219 C343.20401555 227.80531982 336.53085684 224.07940464 329.8269043 220.40283203 C324.24697798 217.33278455 318.84239777 214.05228052 313.44042969 210.67773438 C309.85637166 208.48429086 306.19260284 206.48103498 302.49121094 204.49414062 C292.24140395 198.95951353 282.16016702 193.11894439 272.09106445 187.26416016 C264.63187441 182.93544095 257.12360435 178.69531345 249.60229492 174.47558594 C244.28722364 171.48582887 239.03298849 168.41548614 233.81323242 165.26245117 C230.6024683 163.34130369 227.34403551 161.51364793 224.07324219 159.69726562 C217.97967189 156.29160257 211.92308191 152.82660808 205.88574219 149.32226562 C195.963261 143.56536372 186.03552641 137.82470977 175.99365234 132.27783203 C167.87153369 127.79088412 159.83976109 123.17684702 151.85449219 118.45117188 C140.16160579 111.53181583 128.39907406 104.74075607 116.47192383 98.23242188 C112.34039717 95.9637946 108.42261647 93.52186129 104.51074219 90.88476562 C102.8991776 89.96498198 101.27395118 89.06870906 99.63574219 88.19726562 C88.15394699 82.00761862 76.84533986 75.51863378 65.56811523 68.96533203 C60.67563166 66.1260632 55.76273621 63.32880545 50.82324219 60.57226562 C44.08189458 56.80889196 37.4201558 52.91596997 30.76074219 49.00976562 C22.99630902 44.46267639 15.20188919 39.98135277 7.32324219 35.63476562 C6.50436523 35.18117676 5.68548828 34.72758789 4.84179688 34.26025391 C-10.50715276 25.85302399 -20.76932109 29.28286797 -35.06738281 38.17773438 Z " fill="#99C041" transform="translate(538.4892578125,140.115234375)"/>
<path d="M0 0 C8.45484091 0.13162598 14.10056693 1.32050763 21.00366211 6.45532227 C21.77838867 7.00833008 22.55311523 7.56133789 23.35131836 8.13110352 C31.62836679 14.66561543 33.58769392 22.31997098 35.00366211 32.45532227 C35.66366211 32.45532227 36.32366211 32.45532227 37.00366211 32.45532227 C38.23526952 37.5978234 38.97267801 42.45388055 37.00366211 47.45532227 C32.63044477 52.67112378 26.39170939 56.1116434 20.69799805 59.71264648 C16.42650549 62.47541505 12.38506185 65.53064305 8.31616211 68.58032227 C6.75036018 69.73218587 5.18395863 70.88323485 3.61694336 72.03344727 C0.50845157 74.32785718 -2.57443523 76.65189221 -5.64086914 79.00219727 C-6.37539307 79.56277832 -7.10991699 80.12335938 -7.86669922 80.70092773 C-9.25281804 81.76145244 -10.63443283 82.82789866 -12.01074219 83.90112305 C-16.66319019 87.45532227 -16.66319019 87.45532227 -19.99633789 87.45532227 C-20.26446289 86.32094727 -20.53258789 85.18657227 -20.80883789 84.01782227 C-21.20071289 82.84219727 -21.59258789 81.66657227 -21.99633789 80.45532227 C-25.73648694 79.20860592 -29.1181476 78.81630227 -32.99633789 79.45532227 C-39.26183299 83.35647959 -40.75701295 87.73734744 -42.99633789 94.45532227 C-43.11659084 96.8072462 -43.17166124 99.16285758 -43.18383789 101.51782227 C-43.19801758 102.76692383 -43.21219727 104.01602539 -43.22680664 105.30297852 C-43.33446394 108.55297313 -43.33446394 108.55297313 -40.99633789 110.45532227 C-33.42473321 113.19435898 -23.22791575 111.78097363 -15.43383789 110.45532227 C-9.18554969 109.45787603 -3.07133739 109.23072174 3.25366211 109.20532227 C4.16446533 109.19629883 5.07526855 109.18727539 6.01367188 109.17797852 C14.36120666 109.21430176 22.15601825 110.56408506 30.00366211 113.45532227 C30.00366211 114.11532227 30.00366211 114.77532227 30.00366211 115.45532227 C30.72553711 115.49657227 31.44741211 115.53782227 32.19116211 115.58032227 C37.19157349 117.13600581 39.06025249 120.84638853 41.58178711 125.14672852 C52.85608922 147.01121246 49.73555385 178.0552178 45.00366211 201.45532227 C44.85960937 202.17929199 44.71555664 202.90326172 44.56713867 203.64916992 C43.77160629 207.59887094 42.919654 211.53149886 42.00366211 215.45532227 C41.34366211 215.45532227 40.68366211 215.45532227 40.00366211 215.45532227 C39.94178711 216.38344727 39.87991211 217.31157227 39.81616211 218.26782227 C39.1817094 222.76337289 37.282319 226.52724954 35.34350586 230.59594727 C33.673236 234.16048819 32.23159003 237.79362166 30.80053711 241.45922852 C30.00366211 243.45532227 30.00366211 243.45532227 29.00366211 245.45532227 C28.34366211 245.45532227 27.68366211 245.45532227 27.00366211 245.45532227 C26.78194336 246.28161133 26.56022461 247.10790039 26.33178711 247.95922852 C24.69510799 252.26754561 22.42076289 255.6585383 19.75366211 259.39282227 C19.22716064 260.13282471 18.70065918 260.87282715 18.15820312 261.63525391 C12.4102972 269.53072907 5.89711979 276.55768166 -0.99633789 283.45532227 C-2.28024414 284.7740332 -2.28024414 284.7740332 -3.59008789 286.11938477 C-20.66565797 302.70862531 -47.48698766 320.18930287 -72.05883789 320.76782227 C-83.66074064 320.5977831 -91.39747207 317.16684217 -99.70336914 309.06469727 C-102.85826051 305.47446313 -105.99633789 301.4524219 -105.99633789 296.45532227 C-106.65633789 296.45532227 -107.31633789 296.45532227 -107.99633789 296.45532227 C-111.30054387 284.29127463 -113.87108549 273.11000423 -112.99633789 260.45532227 C-112.46524414 260.21297852 -111.93415039 259.97063477 -111.38696289 259.72094727 C-110.68055664 259.38579102 -109.97415039 259.05063477 -109.24633789 258.70532227 C-108.55024414 258.38047852 -107.85415039 258.05563477 -107.13696289 257.72094727 C-104.66675872 256.26046159 -103.01925131 254.48933028 -100.99633789 252.45532227 C-98.87004911 250.86400014 -96.74644741 249.33039736 -94.55883789 247.83032227 C-93.99874023 247.43586914 -93.43864258 247.04141602 -92.86157227 246.63500977 C-90.41198935 244.94288248 -88.12109787 243.50332096 -85.33618164 242.43188477 C-82.50078643 241.24849778 -81.12499341 239.6595749 -78.99633789 237.45532227 C-76.87004911 235.86400014 -74.74644741 234.33039736 -72.55883789 232.83032227 C-71.99874023 232.43586914 -71.43864258 232.04141602 -70.86157227 231.63500977 C-67.67020916 229.43047423 -64.60109644 227.84763642 -60.99633789 226.45532227 C-60.33633789 225.77469727 -59.67633789 225.09407227 -58.99633789 224.39282227 C-56.63817863 222.10835548 -55.16970012 221.96159881 -51.99633789 221.45532227 C-51.87516602 222.14239258 -51.75399414 222.82946289 -51.62915039 223.53735352 C-51.3777832 224.88893555 -51.3777832 224.88893555 -51.12133789 226.26782227 C-50.95891602 227.16114258 -50.79649414 228.05446289 -50.62915039 228.97485352 C-50.0844534 231.68260073 -50.0844534 231.68260073 -47.99633789 234.45532227 C-41.49677143 235.89503362 -35.8550868 234.9032908 -30.18383789 231.51782227 C-23.65943889 226.86965939 -18.56040322 221.12366648 -15.99633789 213.45532227 C-15.61344771 211.15843428 -15.61344771 211.15843428 -15.62133789 208.89282227 C-15.59297852 208.1490332 -15.56461914 207.40524414 -15.53540039 206.63891602 C-16.19324735 203.52250541 -17.48718824 202.36278807 -19.99633789 200.45532227 C-22.42378451 199.8948716 -22.42378451 199.8948716 -25.12133789 200.08032227 C-26.19254883 200.11383789 -27.26375977 200.14735352 -28.36743164 200.18188477 C-31.59492377 200.42507578 -34.79042214 200.77510834 -38.00097656 201.18115234 C-75.2228579 205.85626394 -75.2228579 205.85626394 -87.99633789 197.45532227 C-90.77750076 195.03237715 -92.9166812 192.49162104 -94.99633789 189.45532227 C-95.6421582 188.57553711 -95.6421582 188.57553711 -96.30102539 187.67797852 C-98.99633789 183.87665847 -98.99633789 183.87665847 -98.99633789 181.45532227 C-99.65633789 181.45532227 -100.31633789 181.45532227 -100.99633789 181.45532227 C-108.86125128 159.36517422 -108.03661948 133.92612245 -102.47045898 111.4440918 C-101.83036649 108.75913123 -101.37703116 106.05387745 -100.93383789 103.33032227 C-96.05563082 76.28991584 -79.96972839 50.8541251 -60.99633789 31.45532227 C-60.24739258 30.65610352 -59.49844727 29.85688477 -58.72680664 29.03344727 C-53.03305087 23.08321601 -46.71632585 18.19830972 -39.99633789 13.45532227 C-38.96895508 12.70895508 -37.94157227 11.96258789 -36.88305664 11.19360352 C-33.99633789 9.45532227 -33.99633789 9.45532227 -29.99633789 9.45532227 C-29.99633789 8.79532227 -29.99633789 8.13532227 -29.99633789 7.45532227 C-26.11264772 4.47782647 -21.74883929 3.38130638 -17.10571289 2.10375977 C-11.38006456 0.34365306 -6.36867478 0.03565012 0 0 Z " fill="#020202" transform="translate(791.996337890625,521.544677734375)"/>
<path d="M0 0 C-1.29560329 3.88680986 -3.01130681 4.7358096 -6.3125 7.125 C-7.41938164 7.93474439 -8.52614955 8.74464426 -9.6328125 9.5546875 C-10.19774414 9.96428711 -10.76267578 10.37388672 -11.34472656 10.79589844 C-13.81060249 12.58965951 -16.24891455 14.41937214 -18.6875 16.25 C-19.66074219 16.97960937 -20.63398437 17.70921875 -21.63671875 18.4609375 C-27.84665772 23.1369701 -34.00775537 27.87780397 -40.17578125 32.60888672 C-41.07876953 33.29748779 -41.07876953 33.29748779 -42 34 C-42.99580078 34.82201904 -42.99580078 34.82201904 -44.01171875 35.66064453 C-46.9968571 37.67150762 -49.48598598 37.251001 -53 37 C-53.58007812 36.835 -54.16015625 36.67 -54.7578125 36.5 C-57.97424843 35.782746 -61.08313463 35.78942354 -64.375 35.75 C-66.30472656 35.71132813 -66.30472656 35.71132813 -68.2734375 35.671875 C-73.17774684 36.10370098 -76.51506408 37.51506408 -80 41 C-80.66707548 44.41499591 -80.66707548 44.41499591 -80 48 C-73.00888714 54.15883752 -65.41348348 54.31743606 -56.5625 54.25 C-55.55123047 54.25773437 -54.53996094 54.26546875 -53.49804688 54.2734375 C-47.90301714 54.2588386 -43.30124439 53.76009695 -38 52 C-37.01 52 -36.02 52 -35 52 C-35 51.34 -35 50.68 -35 50 C-23.05335908 46.7152266 -11.08967652 43.6804353 1.0625 41.25 C2.04661865 41.05188721 3.0307373 40.85377441 4.04467773 40.6496582 C7.02496479 40.06791452 10.00915367 39.52468891 13 39 C14.05445313 38.81091064 15.10890625 38.62182129 16.1953125 38.42700195 C25.29207814 36.94798697 34.22080394 36.65965144 43.41259766 36.68432617 C45.86536134 36.68748758 48.31691523 36.66391867 50.76953125 36.63867188 C65.22757339 36.57933617 78.52297556 39.00957626 92.4375 43 C93.81905273 43.37125 93.81905273 43.37125 95.22851562 43.75 C96.10056641 43.9975 96.97261719 44.245 97.87109375 44.5 C98.64380615 44.7165625 99.41651855 44.933125 100.21264648 45.15625 C100.80247314 45.4346875 101.3922998 45.713125 102 46 C102.33 46.99 102.66 47.98 103 49 C105.0457583 49.65880352 107.09348334 50.31187268 109.1484375 50.94140625 C123.54212666 56.28481689 137.50620072 67.04420955 148 78 C148.33 78.99 148.66 79.98 149 81 C149.66 81.33 150.32 81.66 151 82 C151.144375 82.61875 151.28875 83.2375 151.4375 83.875 C151.80478374 86.06652317 151.80478374 86.06652317 153.4375 87.25 C157.88974498 92.23651437 157.42552536 100.46137089 157.31640625 106.75390625 C156.83551946 111.68744852 155.28610268 115.63766636 153 120 C152.63777344 120.70898438 152.27554687 121.41796875 151.90234375 122.1484375 C148.84722315 127.55444751 144.84882973 131.19652328 140 135 C139.08863281 135.72316406 138.17726563 136.44632813 137.23828125 137.19140625 C119.3642132 151 119.3642132 151 114 151 C114 151.66 114 152.32 114 153 C112.96875 153.37125 111.9375 153.7425 110.875 154.125 C108.25795677 155.08774647 105.74780716 156.12058304 103.23046875 157.32421875 C84.32282522 166.20684783 63.69857144 169.24100966 43 169.3125 C42.24933258 169.31545074 41.49866516 169.31840149 40.72525024 169.32144165 C27.15360581 169.33352618 14.27816745 167.88561037 1 165 C-0.33425604 164.73376866 -1.66885445 164.46924296 -3.00390625 164.20703125 C-12.48799318 162.21790062 -20.67062382 158.87189928 -29 154 C-31.31080788 152.93102391 -33.64173238 151.96255821 -36 151 C-36 149.68 -36 148.36 -36 147 C-33.98828125 145.1484375 -33.98828125 145.1484375 -31.3125 143.375 C-30.00732422 142.48941406 -30.00732422 142.48941406 -28.67578125 141.5859375 C-26 140 -26 140 -23.48046875 139.1015625 C-20.25668882 137.6698996 -18.44557924 135.52117674 -16 133 C-14.22260632 131.72059442 -12.40756753 130.49221724 -10.5625 129.3125 C-5.1812677 125.81603099 0.03512844 122.14634537 5.19116211 118.32543945 C12.83127204 112.75940674 12.83127204 112.75940674 17.5 113.27734375 C20.01242442 114.00359143 22.50597449 114.77551329 25 115.5625 C34.2344206 118.09792638 44.8669892 118.16210626 54 115 C56.39795381 113.18712805 56.39795381 113.18712805 58 111 C61.64285714 108 61.64285714 108 64 108 C64.65266503 104.97576996 65.13360572 102.09965264 65 99 C61.73760034 95.37511149 58.68967334 94.16643914 53.8671875 93.69140625 C42.23982356 93.31596299 31.96078048 95.62354292 20.75 98.58984375 C15.82085215 99.87374911 11.0733711 100.58250384 6 101 C6 101.66 6 102.32 6 103 C-0.02735173 104.20302765 -6.0611431 105.35857567 -12.10693359 106.46533203 C-13.89288676 106.79539426 -15.67743839 107.133282 -17.45947266 107.48388672 C-29.96398095 109.91818225 -42.3623954 110.31317317 -55.0625 110.375 C-55.86091309 110.38285522 -56.65932617 110.39071045 -57.48193359 110.39880371 C-67.165751 110.47301112 -75.64380624 109.7504365 -85 107 C-87.03582443 106.65146316 -89.07672219 106.32823867 -91.125 106.0625 C-96.86170917 105.14849064 -101.71323168 103.34967481 -107 101 C-108.7771195 100.25969938 -110.55424563 99.51941459 -112.33154297 98.77954102 C-126.89029385 92.66455923 -126.89029385 92.66455923 -130 88 C-132.05925139 87.27617533 -132.05925139 87.27617533 -134 87 C-134 86.34 -134 85.68 -134 85 C-135.08667969 84.86271484 -135.08667969 84.86271484 -136.1953125 84.72265625 C-147.36726318 81.84408957 -155.66692799 68.84474853 -161.51953125 59.7109375 C-166.03586817 51.44091686 -166.54656178 41.37729298 -164.3359375 32.26171875 C-160.40017655 23.32363569 -151.32975927 12.24605607 -143 7 C-142.29875 6.835 -141.5975 6.67 -140.875 6.5 C-138.59876637 6.11426598 -138.59876637 6.11426598 -137 3 C-133.875 2.3125 -133.875 2.3125 -131 2 C-131 1.34 -131 0.68 -131 0 C-126.38813607 -2.38828668 -121.84689443 -4.5390062 -116.95703125 -6.2890625 C-115.52121659 -6.81065585 -114.10087137 -7.37535792 -112.69116211 -7.96386719 C-78.66963813 -21.06260145 -31.80370555 -16.63297244 0 0 Z " fill="#020202" transform="translate(586,291)"/>
<path d="M0 0 C1.31871094 -0.01417969 2.63742187 -0.02835937 3.99609375 -0.04296875 C7.2175867 0.16521097 8.90170999 0.46581234 11.5625 2.1875 C9.73525391 2.08308594 9.73525391 2.08308594 7.87109375 1.9765625 C-2.17048076 1.13520527 -2.17048076 1.13520527 -11.0625 4.875 C-13.03474357 7.11304459 -13.41487296 8.038808 -13.875 11.0625 C-13.730625 11.76375 -13.58625 12.465 -13.4375 13.1875 C-10.7975 14.5075 -8.1575 15.8275 -5.4375 17.1875 C-9.4375 18.1875 -9.4375 18.1875 -12.625 16.3125 C-15.4375 14.1875 -15.4375 14.1875 -16.4375 13.1875 C-16.875 9.9375 -16.875 9.9375 -16.4375 6.1875 C-11.97829232 0.62760181 -6.68867008 0.00641291 0 0 Z " fill="#A1A1A1" transform="translate(521.4375,325.8125)"/>
<path d="M0 0 C0.99 0.66 1.98 1.32 3 2 C2.67 2.66 2.34 3.32 2 4 C1.34 3.67 0.68 3.34 0 3 C-3.28743547 2.33076238 -3.28743547 2.33076238 -7 3 C-9.04851705 4.6379758 -10.70768313 6.38855876 -12.421875 8.37109375 C-14 10 -14 10 -17 11 C-14.7385797 2.45685663 -8.3302701 -1.11070268 0 0 Z " fill="#BBBBBB" transform="translate(767,600)"/>
<path d="M0 0 C0.33 0 0.66 0 1 0 C1.03738281 0.82242188 1.07476563 1.64484375 1.11328125 2.4921875 C1.49345068 8.94761351 2.30387106 14.57938213 4.3671875 20.69921875 C5.33407396 24.21462693 5.20135897 27.37553847 5 31 C-0.96494938 22.05257594 -0.38608679 10.33854637 0 0 Z " fill="#787878" transform="translate(679,782)"/>
<path d="M0 0 C-0.95712891 0.19916016 -0.95712891 0.19916016 -1.93359375 0.40234375 C-3.17302734 0.66724609 -3.17302734 0.66724609 -4.4375 0.9375 C-5.26121094 1.11152344 -6.08492187 1.28554688 -6.93359375 1.46484375 C-8.97661204 1.80752994 -8.97661204 1.80752994 -10 3 C-11.70772358 3.08713831 -13.41898649 3.10700007 -15.12890625 3.09765625 C-16.68061523 3.09282227 -16.68061523 3.09282227 -18.26367188 3.08789062 C-19.35228516 3.07951172 -20.44089844 3.07113281 -21.5625 3.0625 C-23.2012207 3.05573242 -23.2012207 3.05573242 -24.87304688 3.04882812 C-27.58208495 3.03699826 -30.29101599 3.02051543 -33 3 C-33 2.67 -33 2.34 -33 2 C-32.39937744 1.97494385 -31.79875488 1.9498877 -31.17993164 1.92407227 C-28.47388563 1.8084472 -25.76821717 1.68557064 -23.0625 1.5625 C-22.11697266 1.52318359 -21.17144531 1.48386719 -20.19726562 1.44335938 C-19.29814453 1.40146484 -18.39902344 1.35957031 -17.47265625 1.31640625 C-16.22367554 1.26141968 -16.22367554 1.26141968 -14.94946289 1.20532227 C-12.99661142 1.20632897 -12.99661142 1.20632897 -12 0 C-4.23003802 -1.27376426 -4.23003802 -1.27376426 0 0 Z " fill="#848484" transform="translate(551,343)"/>
<path d="M0 0 C0.66 0.33 1.32 0.66 2 1 C-1.96 5.29 -5.92 9.58 -10 14 C-10.99 13.67 -11.98 13.34 -13 13 C-8.71 8.71 -4.42 4.42 0 0 Z " fill="#3E3E3E" transform="translate(740,544)"/>
<path d="M0 0 C0.66 3.96 1.32 7.92 2 12 C-0.61047801 10.694761 -0.68066423 9.64173426 -1.625 6.9375 C-1.88539063 6.20402344 -2.14578125 5.47054687 -2.4140625 4.71484375 C-2.60742188 4.14894531 -2.80078125 3.58304688 -3 3 C-4.65 3.33 -6.3 3.66 -8 4 C-5.29881977 1.17603885 -4.05589853 0 0 0 Z " fill="#4B4B4B" transform="translate(740,743)"/>
<path d="M0 0 C-0.74765625 0.19335938 -1.4953125 0.38671875 -2.265625 0.5859375 C-3.25046875 0.84632813 -4.2353125 1.10671875 -5.25 1.375 C-6.71179688 1.75785156 -6.71179688 1.75785156 -8.203125 2.1484375 C-10.96203456 2.9004026 -10.96203456 2.9004026 -13.21875 4.125 C-15 5 -15 5 -17.25 4.625 C-17.8275 4.41875 -18.405 4.2125 -19 4 C-13.70677069 0.11829851 -6.38832058 -2.06550781 0 0 Z " fill="#7A7A7A" transform="translate(486,282)"/>
<path d="M0 0 C3.32643967 2.98232523 5.29152862 5.86370087 7 10 C6.67 10.66 6.34 11.32 6 12 C5.67 10.68 5.34 9.36 5 8 C4.34 8 3.68 8 3 8 C0 2.25 0 2.25 0 0 Z " fill="#5A5A5A" transform="translate(818,533)"/>
<path d="M0 0 C0.66 0.33 1.32 0.66 2 1 C-0.25 3.5625 -0.25 3.5625 -3 6 C-4.32 5.67 -5.64 5.34 -7 5 C-4.69 3.35 -2.38 1.7 0 0 Z " fill="#A3A3A3" transform="translate(771,820)"/>
<path d="M0 0 C0.66 0.33 1.32 0.66 2 1 C-0.25 3.5625 -0.25 3.5625 -3 6 C-4.32 5.67 -5.64 5.34 -7 5 C-4.69 3.35 -2.38 1.7 0 0 Z " fill="#A6A6A6" transform="translate(718,431)"/>
<path d="M0 0 C0.66 0.33 1.32 0.66 2 1 C-0.13478166 4.20217249 -1.62795029 5.27285259 -5 7 C-5.99 7 -6.98 7 -8 7 C-5.36 4.69 -2.72 2.38 0 0 Z " fill="#5B5B5B" transform="translate(443,298)"/>
<path d="M0 0 C3.11198065 1.49836105 6.0534615 3.19933758 9 5 C7.68 5.33 6.36 5.66 5 6 C3.35 4.02 1.7 2.04 0 0 Z " fill="#5B5B5B" transform="translate(696,832)"/>
</svg>
